<svg xmlns="http://www.w3.org/2000/svg" version="1.1" xmlns:xlink="http://www.w3.org/1999/xlink" xmlns:svgjs="http://svgjs.com/svgjs" width="1440" height="560" preserveAspectRatio="none" viewBox="0 0 1440 560"><g mask="url(&quot;#SvgjsMask1010&quot;)" fill="none"><rect width="1440" height="560" x="0" y="0" fill="rgba(221, 26, 26, 1)"></rect><path d="M0,520.516C94.513,498.397,173.028,446.392,262.126,407.876C372.239,360.276,519.939,367.844,585.528,267.401C650.87,167.337,621.013,29.522,583.225,-83.855C548.922,-186.774,463.066,-258.246,385.166,-333.748C313.727,-402.988,237.377,-460.863,148.375,-505.319C42.548,-558.179,-64.614,-637.501,-181.041,-616.568C-299.376,-595.292,-382.314,-490.248,-457.462,-396.394C-530.358,-305.352,-589.264,-202.55,-605.062,-86.995C-620.796,28.093,-588.049,141.051,-545.725,249.224C-501.33,362.689,-464.038,498.052,-354.935,552.29C-246.37,606.26,-118.05,548.144,0,520.516" fill="#b11515"></path><path d="M1440 1265.313C1568.387 1287.941 1673.906 1164.962 1781.155 1090.848 1884.88 1019.169 2004.31 956.2950000000001 2054.527 840.645 2104.44 725.6949999999999 2075.4 594.995 2049.721 472.335 2025.392 356.125 2001.5729999999999 228.461 1910.435 152.36599999999999 1822.319 78.79500000000002 1692.873 105.22699999999998 1580.721 80.74900000000002 1478.349 58.40499999999997 1383.316-2.11099999999999 1279.899 14.745000000000005 1170.496 32.57600000000002 1071.713 94.267 996.7570000000001 175.928 920.525 258.979 874.894 364.885 856.429 476.095 837.689 588.957 831.425 713.109 891.386 810.544 949.5350000000001 905.034 1082.848 912.02 1168.266 982.826 1270.934 1067.932 1308.6680000000001 1242.1660000000002 1440 1265.313" fill="#e94040"></path></g><defs><mask id="SvgjsMask1010"><rect width="1440" height="560" fill="#ffffff"></rect></mask></defs></svg>